<?xml version="1.0" encoding="iso-8859-1"?>
<!-- Generator: Adobe Illustrator 19.0.0, SVG Export Plug-In . SVG Version: 6.00 Build 0)  -->
<svg version="1.1" id="Layer_1" xmlns="http://www.w3.org/2000/svg" xmlns:xlink="http://www.w3.org/1999/xlink" x="0px" y="0px"
	 viewBox="0 0 473.931 473.931" style="enable-background:new 0 0 473.931 473.931;" xml:space="preserve" width="100" height="100">
<circle style="fill:#D7DABA;" cx="236.966" cy="236.966" r="236.966"/>
<g>
	<path style="fill:#4B4A4B;" d="M377.776,275.697c0,5.729-4.64,10.376-10.368,10.376h-146.58c-5.736,0-10.376-4.647-10.376-10.376
		v-77.488c0-5.729,4.64-10.368,10.376-10.368h146.58c5.729,0,10.368,4.64,10.368,10.368V275.697z"/>
	<path style="fill:#4B4A4B;" d="M340.242,160.563H112.257c-8.917,0-16.138,7.222-16.138,16.131v120.526
		c0,8.902,7.222,16.131,16.138,16.131h227.985c8.909,0,16.138-7.229,16.138-16.131V176.693
		C356.376,167.784,349.151,160.563,340.242,160.563z M338.27,298.978H111.272V175.384H338.27V298.978z"/>
</g>
<rect x="111.272" y="175.384" style="fill:#767879;" width="226.998" height="123.59"/>
<rect x="111.272" y="232.85" style="fill:#676969;" width="226.998" height="66.132"/>
<polygon style="fill:#EFC849;" points="190.182,175.384 111.272,175.384 111.272,299.131 313.926,299.131 "/>
<rect x="111.272" y="175.384" style="opacity:0.1;fill:#FFFFFF;enable-background:new    ;" width="226.998" height="57.462"/>
<g>
</g>
<g>
</g>
<g>
</g>
<g>
</g>
<g>
</g>
<g>
</g>
<g>
</g>
<g>
</g>
<g>
</g>
<g>
</g>
<g>
</g>
<g>
</g>
<g>
</g>
<g>
</g>
<g>
</g>
</svg>
