<?xml version="1.0" encoding="iso-8859-1"?>
<!-- Generator: Adobe Illustrator 19.0.0, SVG Export Plug-In . SVG Version: 6.00 Build 0)  -->
<svg xmlns="http://www.w3.org/2000/svg" xmlns:xlink="http://www.w3.org/1999/xlink" version="1.1" id="Capa_1" x="0px" y="0px" viewBox="0 0 60 60" style="enable-background:new 0 0 60 60;" xml:space="preserve" width="100" height="100">
<g>
	<g>
		<path d="M60,19v-2H43V0h-2v17H20V0h-2v17H0v2h18v6h-5.2c-0.2,0-0.4,0-0.5,0.1l-7.6,4c-0.3,0.2-0.5,0.5-0.5,0.9s0.2,0.7,0.5,0.9    l7.6,4c0.2,0.1,0.3,0.1,0.5,0.1H18v6H0v2h18v17h2V43h21v17h2V43h17v-2H43v-6h12c0.6,0,1-0.4,1-1v-8c0-0.6-0.4-1-1-1H43v-6H60z     M13,27h35v2H17v2h31v2H14v-4h-2v3.5L7.3,30L13,27z M41,41H20v-6h21V41z M54,33h-4v-6h4V33z M41,25H20v-6h21V25z" fill="#D80027"/>
		<path d="M52,45.3c-3.3,0-5.9,2.6-5.9,5.9s2.6,5.9,5.9,5.9s5.9-2.6,5.9-5.9S55.3,45.3,52,45.3z M52,55.1c-2.1,0-3.9-1.8-3.9-3.9    c0-2.1,1.7-3.9,3.9-3.9s3.9,1.7,3.9,3.9C55.9,53.4,54.1,55.1,52,55.1z" fill="#D80027"/>
		<polygon points="27.4,13.9 30.9,10.4 34.5,14 35.9,12.6 32.4,9 35.9,5.5 34.4,4.1 30.9,7.6 27.5,4.1 26.1,5.6 29.5,9 26,12.5       " fill="#D80027"/>
		<polygon points="13.9,48.5 12.4,47.1 8.9,50.6 5.5,47.1 4.1,48.6 7.5,52 4,55.5 5.4,56.9 8.9,53.4 12.5,57 13.9,55.6 10.4,52       " fill="#D80027"/>
		<rect x="46" y="5" width="7" height="2" fill="#D80027"/>
		<rect x="46" y="10" width="12" height="2" fill="#D80027"/>
		<rect x="29" y="53" width="7" height="2" fill="#D80027"/>
		<rect x="24" y="48" width="12" height="2" fill="#D80027"/>
		<path d="M9,14.1c3.3,0,5.9-2.6,5.9-5.9S12.3,2.3,9,2.3S3.1,4.9,3.1,8.2S5.7,14.1,9,14.1z M9,4.3c2.2,0,3.9,1.7,3.9,3.9    s-1.7,3.9-3.9,3.9s-3.9-1.7-3.9-3.9S6.8,4.3,9,4.3z" fill="#D80027"/>
	</g>
</g>
<g>
</g>
<g>
</g>
<g>
</g>
<g>
</g>
<g>
</g>
<g>
</g>
<g>
</g>
<g>
</g>
<g>
</g>
<g>
</g>
<g>
</g>
<g>
</g>
<g>
</g>
<g>
</g>
<g>
</g>
</svg>
