<?xml version="1.0" encoding="iso-8859-1"?>
<!-- Generator: Adobe Illustrator 19.0.0, SVG Export Plug-In . SVG Version: 6.00 Build 0)  -->
<svg xmlns="http://www.w3.org/2000/svg" xmlns:xlink="http://www.w3.org/1999/xlink" version="1.1" id="Layer_1" x="0px" y="0px" viewBox="0 0 511.999 511.999" style="enable-background:new 0 0 511.999 511.999;" xml:space="preserve" width="100" height="100">
<g>
	<g>
		<path d="M446.94,116.788c-0.027-0.271-0.074-0.534-0.119-0.799c-0.017-0.094-0.025-0.19-0.044-0.283    c-0.064-0.319-0.146-0.632-0.237-0.941c-0.011-0.038-0.018-0.077-0.029-0.114c-0.096-0.315-0.209-0.62-0.33-0.922    c-0.013-0.035-0.023-0.07-0.038-0.104c-0.118-0.285-0.252-0.559-0.393-0.831c-0.027-0.052-0.049-0.106-0.076-0.157    c-0.13-0.244-0.277-0.478-0.425-0.711c-0.048-0.076-0.089-0.155-0.138-0.229c-0.139-0.208-0.293-0.405-0.446-0.603    c-0.07-0.091-0.133-0.187-0.206-0.276c-0.169-0.204-0.35-0.396-0.532-0.587c-0.068-0.071-0.128-0.148-0.198-0.219L336.985,3.268    c-0.07-0.07-0.147-0.129-0.219-0.197c-0.192-0.182-0.383-0.364-0.587-0.532c-0.089-0.074-0.185-0.136-0.276-0.206    c-0.198-0.153-0.395-0.307-0.603-0.446c-0.075-0.05-0.154-0.091-0.229-0.139c-0.233-0.148-0.466-0.295-0.711-0.425    c-0.051-0.028-0.106-0.049-0.157-0.076c-0.271-0.141-0.547-0.274-0.831-0.393c-0.035-0.014-0.07-0.025-0.104-0.038    c-0.301-0.122-0.608-0.234-0.922-0.33c-0.038-0.011-0.076-0.018-0.114-0.029c-0.309-0.09-0.621-0.173-0.941-0.237    c-0.094-0.019-0.19-0.027-0.283-0.044c-0.264-0.046-0.529-0.093-0.799-0.119C329.843,0.019,329.471,0,329.097,0H94.461    C78.218,0,65.003,13.215,65.003,29.458V482.54c0,16.244,13.215,29.459,29.458,29.459h323.077    c16.243,0,29.457-13.215,29.457-29.459V117.902C446.996,117.528,446.977,117.157,446.94,116.788z M340.252,38.096l68.649,68.649    h-61.506c-3.939,0-7.143-3.205-7.143-7.142V38.096z M424.681,482.542c0,3.939-3.204,7.143-7.142,7.143H94.461    c-3.939,0-7.143-3.204-7.143-7.143V29.458c0-3.939,3.204-7.143,7.143-7.143h223.475v77.287c0,16.243,13.215,29.457,29.458,29.457    h77.286V482.542z" fill="#ff9100"/>
	</g>
</g>
<g>
	<g>
		<path d="M384.841,190.796H275.929c-6.161,0-11.158,4.996-11.158,11.158c0,6.162,4.996,11.158,11.158,11.158h108.912    c6.161,0,11.158-4.995,11.158-11.158C395.999,195.793,391.003,190.796,384.841,190.796z" fill="#ff9100"/>
	</g>
</g>
<g>
	<g>
		<path d="M321.459,245.159h-45.53c-6.161,0-11.158,4.996-11.158,11.158c0,6.161,4.995,11.158,11.158,11.158h45.53    c6.161,0,11.158-4.995,11.158-11.158C332.616,250.155,327.62,245.159,321.459,245.159z" fill="#ff9100"/>
	</g>
</g>
<g>
	<g>
		<path d="M213.316,206.89c-4.356-4.357-11.422-4.356-15.779,0.003l-20.8,20.811l-11.234-11.24    c-4.356-4.358-11.42-4.362-15.779-0.006c-4.359,4.355-4.362,11.42-0.006,15.779l19.124,19.138    c2.092,2.094,4.932,3.271,7.891,3.271c0.001,0,0.001,0,0.001,0c2.959,0,5.799-1.177,7.891-3.27l28.694-28.708    C217.676,218.311,217.675,211.247,213.316,206.89z" fill="#ff9100"/>
	</g>
</g>
<g>
	<g>
		<path d="M235.882,163.616H127.158c-6.161,0-11.158,4.996-11.158,11.158v108.724c0,6.162,4.996,11.158,11.158,11.158h108.724    c6.161,0,11.158-4.996,11.158-11.158V174.774C247.039,168.611,242.044,163.616,235.882,163.616z M224.724,272.34h-86.408v-86.408    h86.408V272.34z" fill="#ff9100"/>
	</g>
</g>
<g>
	<g>
		<path d="M384.841,357.101H275.929c-6.161,0-11.158,4.996-11.158,11.158c0,6.161,4.996,11.158,11.158,11.158h108.912    c6.161,0,11.158-4.996,11.158-11.158C395.999,362.097,391.003,357.101,384.841,357.101z" fill="#ff9100"/>
	</g>
</g>
<g>
	<g>
		<path d="M321.458,411.464h-45.529c-6.161,0-11.158,4.995-11.158,11.158c0,6.161,4.996,11.158,11.158,11.158h45.53    c6.161,0,11.158-4.996,11.158-11.158C332.615,416.459,327.62,411.464,321.458,411.464z" fill="#ff9100"/>
	</g>
</g>
<g>
	<g>
		<path d="M235.882,329.92H127.158c-6.161,0-11.158,4.995-11.158,11.158v108.724c0,6.161,4.996,11.158,11.158,11.158h108.724    c6.161,0,11.158-4.996,11.158-11.158V341.078C247.039,334.915,242.044,329.92,235.882,329.92z M224.724,438.644h-86.408v-86.408    h86.408V438.644z" fill="#ff9100"/>
	</g>
</g>
<g>
</g>
<g>
</g>
<g>
</g>
<g>
</g>
<g>
</g>
<g>
</g>
<g>
</g>
<g>
</g>
<g>
</g>
<g>
</g>
<g>
</g>
<g>
</g>
<g>
</g>
<g>
</g>
<g>
</g>
</svg>
